HIERARCHY
ROOT Hips
{
	OFFSET 0.000000 0.000000 0.000000
	CHANNELS 6 Xposition Yposition Zposition Zrotation Xrotation Yrotation
	JOINT Ab
	{
		OFFSET 0.000000 -0.000001 8.084600
		CHANNELS 6 Xposition Yposition Zposition Zrotation Xrotation Yrotation
		JOINT Chest
		{
			OFFSET 0.000000 -0.000004 23.498899
			CHANNELS 6 Xposition Yposition Zposition Zrotation Xrotation Yrotation
			JOINT Neck
			{
				OFFSET 0.000000 -0.000004 23.498898
				CHANNELS 6 Xposition Yposition Zposition Zrotation Xrotation Yrotation
				JOINT Head
				{
					OFFSET 0.000000 -0.000002 10.755600
					CHANNELS 6 Xposition Yposition Zposition Zrotation Xrotation Yrotation
					End Site
					{
						OFFSET 0.000000 -0.000003 16.622200
					}
				}
			}
			JOINT LeftCollar
			{
				OFFSET 0.000000 -0.000004 23.498898
				CHANNELS 6 Xposition Yposition Zposition Zrotation Xrotation Yrotation
				JOINT LeftShoulder
				{
					OFFSET 19.555599 0.000000 0.000000
					CHANNELS 6 Xposition Yposition Zposition Zrotation Xrotation Yrotation
					JOINT LeftElbow
					{
						OFFSET 27.152798 0.000000 0.000000
						CHANNELS 6 Xposition Yposition Zposition Zrotation Xrotation Yrotation
						JOINT LeftWrist
						{
							OFFSET 22.058205 0.000000 0.000000
							CHANNELS 6 Xposition Yposition Zposition Zrotation Xrotation Yrotation
							End Site
							{
								OFFSET 0.000000 0.000002 -14.666702
							}
						}
					}
				}
			}
			JOINT RightCollar
			{
				OFFSET 0.000000 -0.000004 23.498898
				CHANNELS 6 Xposition Yposition Zposition Zrotation Xrotation Yrotation
				JOINT RightShoulder
				{
					OFFSET -19.555599 0.000000 0.000000
					CHANNELS 6 Xposition Yposition Zposition Zrotation Xrotation Yrotation
					JOINT RightElbow
					{
						OFFSET -27.152798 0.000000 0.000000
						CHANNELS 6 Xposition Yposition Zposition Zrotation Xrotation Yrotation
						JOINT RightWrist
						{
							OFFSET -22.058205 0.000000 0.000000
							CHANNELS 6 Xposition Yposition Zposition Zrotation Xrotation Yrotation
							End Site
							{
								OFFSET 0.000000 0.000002 -14.666702
							}
						}
					}
				}
			}
		}
	}
	JOINT LeftHip
	{
		OFFSET 11.733300 0.000000 0.000000
		CHANNELS 6 Xposition Yposition Zposition Zrotation Xrotation Yrotation
		JOINT LeftKnee
		{
			OFFSET 0.000000 0.000007 -44.661701
			CHANNELS 6 Xposition Yposition Zposition Zrotation Xrotation Yrotation
			JOINT LeftAnkle
			{
				OFFSET 0.000000 0.000006 -38.481899
				CHANNELS 6 Xposition Yposition Zposition Zrotation Xrotation Yrotation
				End Site
				{
					OFFSET 0.000000 -16.622198 -4.888901
				}
			}
		}
	}
	JOINT RightHip
	{
		OFFSET -11.733300 0.000000 0.000000
		CHANNELS 6 Xposition Yposition Zposition Zrotation Xrotation Yrotation
		JOINT RightKnee
		{
			OFFSET 0.000000 0.000007 -44.661701
			CHANNELS 6 Xposition Yposition Zposition Zrotation Xrotation Yrotation
			JOINT RightAnkle
			{
				OFFSET 0.000000 0.000006 -38.481899
				CHANNELS 6 Xposition Yposition Zposition Zrotation Xrotation Yrotation
				End Site
				{
					OFFSET 0.000000 -16.622198 -4.888901
				}
			}
		}
	}
}
MOTION
Frames: 9
Frame Time: 0.041667
-74.640297 84.059479 87.509224 67.176167 -0.812365 -6.972497 0.000006 -0.000001 8.084597 -1.144472 7.546561 -6.797818 -0.000008 -0.000008 23.498920 -1.116639 -4.128192 13.161010 0.000010 0.000002 23.498898 6.007868 -1.260514 -5.411188 -0.000001 0.000002 10.755563 6.281597 -7.500331 3.292200 0.000008 0.000002 23.498898 17.808260 2.394502 15.132180 19.555599 -0.000002 0.000007 -21.131924 17.961601 50.173019 27.152784 0.000006 -0.000011 -25.643103 3.469945 -15.123574 22.058205 0.000016 0.000024 -6.467118 21.673724 -84.982628 0.000010 0.000002 23.498898 -12.177123 3.180189 -29.080825 -19.555620 -0.000005 0.000004 38.833508 34.344824 -45.769330 -27.152815 0.000010 -0.000005 33.738570 6.988418 22.546002 -22.058208 -0.000004 0.000014 6.178407 10.453441 94.452910 11.733308 0.000000 -0.000009 -2.331781 -14.860564 -4.255534 -0.000009 0.000006 -44.661709 7.681545 27.893000 4.768015 -0.000013 0.000004 -38.481895 15.236045 -9.986563 3.628630 -11.733302 -0.000005 0.000001 -3.491097 -1.069572 7.017328 0.000004 0.000011 -44.661694 4.462467 23.593924 -2.575344 0.000004 0.000003 -38.481892 -26.199421 -15.532221 -8.320975 
-74.676689 84.055328 87.518379 67.242017 -0.817552 -6.947717 -0.000010 -0.000004 8.084601 -1.144319 7.542777 -6.780441 0.000003 -0.000007 23.498899 -1.118520 -4.100567 13.146205 0.000001 -0.000002 23.498901 5.973415 -1.250123 -5.352179 -0.000008 0.000004 10.755601 6.242061 -7.502239 3.224595 -0.000000 -0.000003 23.498901 17.861998 2.397642 15.112618 19.555607 -0.000000 0.000022 -21.399787 18.006949 50.297236 27.152792 0.000000 -0.000012 -25.658365 3.484942 -15.176187 22.058220 -0.000000 0.000001 -6.450587 21.523837 -85.014040 0.000004 -0.000002 23.498901 -12.169710 3.180995 -29.104478 -19.555609 0.000002 -0.000012 38.903320 34.325252 -45.856128 -27.152815 -0.000006 0.000007 33.716840 6.967067 22.492081 -22.058205 -0.000001 0.000016 6.207245 10.572188 94.417202 11.733301 -0.000003 -0.000008 -2.343051 -14.832705 -4.249005 0.000009 0.000010 -44.661705 7.657963 27.747584 4.716946 -0.000004 0.000006 -38.481907 15.220363 -9.908363 3.605872 -11.733309 -0.000005 -0.000006 -3.514866 -1.024869 6.979553 0.000010 0.000019 -44.661701 4.433657 23.487641 -2.573575 -0.000007 -0.000005 -38.481880 -26.196048 -15.485651 -8.275822 
-74.713081 84.051178 87.527534 67.307874 -0.822739 -6.922938 0.000000 -0.000004 8.084593 -1.144168 7.538992 -6.763067 0.000009 -0.000020 23.498913 -1.120407 -4.072943 13.131404 -0.000005 -0.000009 23.498905 5.938959 -1.239732 -5.293171 0.000003 0.000012 10.755586 6.202523 -7.504146 3.156989 -0.000006 -0.000010 23.498905 17.915742 2.400777 15.093051 19.555595 0.000012 0.000002 -21.667790 18.051686 50.422027 27.152796 -0.000013 0.000003 -25.673634 3.499927 -15.228786 22.058226 -0.000003 0.000005 -6.434056 21.373940 -85.045458 -0.000004 -0.000009 23.498905 -12.162298 3.181801 -29.128127 -19.555614 -0.000006 -0.000006 38.973104 34.305633 -45.942892 -27.152817 0.000013 -0.000011 33.695113 6.945704 22.438145 -22.058222 -0.000004 0.000004 6.236084 10.690929 94.381487 11.733305 0.000005 -0.000015 -2.354323 -14.804840 -4.242478 0.000015 0.000006 -44.661713 7.634376 27.602164 4.665876 0.000003 0.000003 -38.481895 15.204718 -9.830152 3.583145 -11.733301 -0.000005 -0.000006 -3.538643 -0.980166 6.941783 0.000002 0.000012 -44.661697 4.404843 23.381358 -2.571806 -0.000000 0.000004 -38.481892 -26.192736 -15.439096 -8.230657 
-74.749481 84.047028 87.536682 67.373724 -0.827926 -6.898159 0.000002 -0.000003 8.084601 -1.144015 7.535205 -6.745688 -0.000002 -0.000002 23.498911 -1.122287 -4.045319 13.116600 -0.000000 -0.000003 23.498890 5.904500 -1.229341 -5.234162 0.000000 -0.000003 10.755601 6.162986 -7.506055 3.089383 -0.000001 -0.000003 23.498890 17.969478 2.403908 15.073474 19.555597 0.000008 -0.000008 -21.935940 18.095804 50.547382 27.152796 -0.000028 0.000009 -25.688905 3.514916 -15.281380 22.058222 0.000001 0.000014 -6.417520 21.224056 -85.076884 0.000002 -0.000003 23.498890 -12.154890 3.182607 -29.151784 -19.555616 0.000009 0.000010 39.042861 34.285972 -46.029618 -27.152803 0.000002 -0.000001 33.673400 6.924336 22.384190 -22.058216 -0.000004 -0.000001 6.264915 10.809663 94.345785 11.733303 -0.000003 0.000001 -2.365590 -14.776979 -4.235950 0.000002 0.000008 -44.661716 7.610795 27.456744 4.614805 -0.000001 0.000002 -38.481892 15.189115 -9.751938 3.560451 -11.733294 -0.000003 0.000006 -3.562416 -0.935463 6.904010 0.000001 0.000008 -44.661697 4.376039 23.275080 -2.570038 -0.000001 0.000026 -38.481888 -26.189467 -15.392557 -8.185475 
-74.785873 84.042877 87.545837 67.439580 -0.833113 -6.873379 -0.000003 0.000002 8.084599 -1.143862 7.531422 -6.728310 0.000005 -0.000013 23.498892 -1.124170 -4.017695 13.101798 0.000006 -0.000007 23.498909 5.870046 -1.218951 -5.175154 -0.000003 -0.000007 10.755593 6.123447 -7.507962 3.021777 0.000005 -0.000007 23.498909 18.023220 2.407033 15.053894 19.555597 0.000000 0.000012 -22.204230 18.139309 50.673307 27.152821 -0.000024 -0.000014 -25.704174 3.529898 -15.333973 22.058207 -0.000001 0.000012 -6.400989 21.074163 -85.108303 0.000010 -0.000007 23.498909 -12.147479 3.183413 -29.175430 -19.555603 -0.000007 0.000009 39.112566 34.266267 -46.116317 -27.152819 0.000009 0.000003 33.651690 6.902949 22.330217 -22.058208 -0.000008 0.000015 6.293750 10.928405 94.310077 11.733297 0.000007 -0.000004 -2.376861 -14.749116 -4.229423 0.000005 0.000016 -44.661701 7.587211 27.311324 4.563735 -0.000014 0.000002 -38.481895 15.173556 -9.673721 3.537788 -11.733302 0.000010 0.000004 -3.586190 -0.890760 6.866238 0.000014 0.000007 -44.661697 4.347228 23.168796 -2.568268 -0.000005 0.000017 -38.481888 -26.186267 -15.346026 -8.140282 
-74.822266 84.038727 87.554993 67.505430 -0.838300 -6.848600 0.000010 -0.000002 8.084590 -1.143711 7.527636 -6.710934 -0.000006 -0.000001 23.498911 -1.126056 -3.990071 13.086995 -0.000008 0.000001 23.498901 5.835591 -1.208560 -5.116144 -0.000012 0.000002 10.755593 6.083911 -7.509869 2.954171 -0.000008 0.000000 23.498901 18.076961 2.410155 15.034305 19.555593 -0.000009 0.000000 -22.472654 18.182184 50.799785 27.152796 -0.000002 -0.000002 -25.719446 3.544873 -15.386548 22.058208 0.000002 0.000003 -6.384455 20.924278 -85.139715 -0.000006 0.000001 23.498901 -12.140069 3.184219 -29.199083 -19.555597 0.000002 0.000007 39.182234 34.246507 -46.202982 -27.152802 0.000003 0.000007 33.629990 6.881555 22.276232 -22.058214 0.000004 0.000010 6.322589 11.047148 94.274362 11.733312 -0.000002 -0.000003 -2.388134 -14.721257 -4.222895 -0.000002 0.000000 -44.661697 7.563629 27.165909 4.512666 -0.000011 0.000002 -38.481899 15.158034 -9.595490 3.515153 -11.733297 -0.000001 -0.000009 -3.609965 -0.846058 6.828465 0.000006 0.000015 -44.661720 4.318418 23.062515 -2.566500 0.000002 -0.000004 -38.481895 -26.183115 -15.299513 -8.095075 
-74.858658 84.034576 87.564148 67.571287 -0.843487 -6.823820 0.000008 -0.000006 8.084599 -1.143556 7.523850 -6.693557 0.000005 -0.000011 23.498911 -1.127936 -3.962447 13.072191 -0.000001 0.000000 23.498909 5.801134 -1.198169 -5.057135 0.000005 -0.000009 10.755593 6.044370 -7.511778 2.886566 -0.000002 -0.000000 23.498909 18.130700 2.413273 15.014709 19.555593 0.000004 0.000003 -22.741217 18.224434 50.926819 27.152811 0.000002 -0.000002 -25.734724 3.559846 -15.439115 22.058210 -0.000001 -0.000002 -6.367927 20.774387 -85.171134 0.000002 0.000000 23.498909 -12.132655 3.185025 -29.222736 -19.555607 -0.000004 -0.000016 39.251878 34.226699 -46.289609 -27.152803 0.000009 0.000007 33.608291 6.860146 22.222224 -22.058216 -0.000010 0.000000 6.351419 11.165886 94.238654 11.733298 0.000002 0.000001 -2.399402 -14.693390 -4.216367 0.000001 0.000004 -44.661705 7.540047 27.020491 4.461596 0.000008 0.000005 -38.481892 15.142557 -9.517250 3.492548 -11.733293 -0.000003 0.000007 -3.633735 -0.801355 6.790694 0.000009 0.000005 -44.661709 4.289610 22.956233 -2.564731 -0.000005 -0.000001 -38.481895 -26.180028 -15.253015 -8.049853 
-74.895058 84.030418 87.573303 67.637137 -0.848674 -6.799041 0.000002 -0.000008 8.084598 -1.143406 7.520065 -6.676179 0.000003 -0.000015 23.498898 -1.129820 -3.934823 13.057386 -0.000005 0.000001 23.498890 5.766674 -1.187778 -4.998127 0.000007 -0.000016 10.755586 6.004833 -7.513684 2.818961 -0.000006 0.000001 23.498890 18.184440 2.416386 14.995110 19.555614 0.000003 -0.000009 -23.009914 18.266048 51.054407 27.152796 -0.000025 -0.000001 -25.750001 3.574813 -15.491680 22.058208 -0.000005 0.000020 -6.351394 20.624499 -85.202546 -0.000004 0.000002 23.498890 -12.125249 3.185831 -29.246392 -19.555618 0.000007 0.000004 39.321481 34.206848 -46.376206 -27.152800 -0.000003 0.000001 33.586605 6.838721 22.168204 -22.058228 0.000006 0.000005 6.380257 11.284626 94.202953 11.733302 0.000002 -0.000003 -2.410673 -14.665526 -4.209839 -0.000011 0.000000 -44.661709 7.516461 26.875075 4.410526 0.000001 0.000014 -38.481895 15.127114 -9.439006 3.469975 -11.733295 -0.000008 -0.000009 -3.657510 -0.756652 6.752921 0.000005 0.000023 -44.661694 4.260798 22.849952 -2.562962 -0.000006 0.000011 -38.481892 -26.176987 -15.206537 -8.004617 
-74.931450 84.026268 87.582458 67.702993 -0.853862 -6.774263 -0.000005 -0.000002 8.084597 -1.143250 7.516279 -6.658802 -0.000004 -0.000007 23.498896 -1.131704 -3.907198 13.042583 0.000001 -0.000009 23.498894 5.732221 -1.177387 -4.939118 -0.000006 -0.000002 10.755609 5.965299 -7.515591 2.751355 -0.000001 -0.000009 23.498894 18.238179 2.419494 14.975502 19.555597 0.000003 0.000020 -23.278750 18.307031 51.182545 27.152815 -0.000009 -0.000011 -25.765280 3.589779 -15.544233 22.058210 -0.000001 0.000020 -6.334860 20.474610 -85.233965 0.000002 -0.000009 23.498894 -12.117833 3.186637 -29.270045 -19.555607 -0.000007 -0.000002 39.391043 34.186955 -46.462765 -27.152803 0.000004 -0.000003 33.564922 6.817291 22.114165 -22.058208 -0.000015 0.000008 6.409093 11.403368 94.167231 11.733297 -0.000006 -0.000007 -2.421936 -14.637664 -4.203311 0.000004 0.000011 -44.661705 7.492879 26.729655 4.359455 0.000001 0.000009 -38.481888 15.111717 -9.360756 3.447430 -11.733309 -0.000009 -0.000001 -3.681280 -0.711949 6.715148 -0.000007 0.000002 -44.661701 4.231990 22.743669 -2.561193 -0.000010 0.000015 -38.481888 -26.174005 -15.160071 -7.959369 
